<?xml version="1.0" standalone="no"?>
<!DOCTYPE svg PUBLIC "-//W3C//DTD SVG 20010904//EN"
 "http://www.w3.org/TR/2001/REC-SVG-20010904/DTD/svg10.dtd">
<svg version="1.0" xmlns="http://www.w3.org/2000/svg"
 width="500.000000pt" height="500.000000pt" viewBox="0 0 500.000000 500.000000"
 preserveAspectRatio="xMidYMid meet">

<g transform="translate(0.000000,500.000000) scale(0.100000,-0.100000)"
fill="#000000" stroke="none">
<path d="M1662 3293 l3 -128 93 -3 92 -3 0 31 0 30 -65 0 c-64 0 -65 1 -65 26
0 25 2 26 38 21 58 -10 84 1 80 32 -3 24 -6 26 -63 26 -53 0 -60 2 -60 20 0
17 8 21 65 25 58 4 65 7 68 28 3 21 1 22 -93 22 l-96 0 3 -127z"/>
<path d="M1930 3416 c0 -9 62 -173 80 -213 11 -24 26 -43 34 -43 17 0 42 29
51 60 4 14 13 32 20 40 7 8 16 31 20 50 4 19 16 49 26 66 25 41 24 44 -10 44
-26 0 -31 -6 -60 -75 -17 -41 -31 -81 -31 -90 0 -35 -17 -9 -39 61 -13 41 -30
82 -38 90 -13 13 -53 20 -53 10z"/>
<path d="M2250 3290 l0 -130 95 0 95 0 0 30 0 30 -65 0 c-64 0 -65 1 -65 26 0
26 1 27 49 21 54 -6 74 5 65 39 -4 16 -12 18 -55 15 -55 -3 -73 6 -63 32 4 12
22 17 67 19 56 3 62 5 65 26 3 21 1 22 -92 22 l-96 0 0 -130z"/>
<path d="M2540 3378 c0 -24 -3 -80 -7 -125 l-6 -83 31 0 31 0 3 67 3 67 27
-40 c47 -67 72 -92 98 -96 l25 -3 3 105 c4 131 -1 150 -33 150 -24 0 -25 -3
-25 -62 0 -77 -14 -106 -29 -64 -12 30 -57 94 -80 114 -28 23 -41 14 -41 -30z"/>
<path d="M2830 3393 c0 -20 5 -23 40 -23 l40 0 0 -99 c0 -81 3 -100 16 -105
41 -16 44 -10 44 98 l0 105 38 3 c29 2 37 7 37 23 0 19 -7 20 -107 20 -106 0
-108 0 -108 -22z"/>
<path d="M3159 3405 c-38 -21 -42 -40 -18 -96 21 -47 23 -49 70 -55 31 -4 49
-11 49 -20 0 -20 -44 -28 -83 -15 -33 11 -67 7 -67 -9 0 -16 40 -41 74 -47 21
-3 55 0 77 7 32 11 41 20 49 49 8 30 7 38 -12 58 -12 13 -40 29 -62 35 -53 15
-62 23 -46 43 9 11 27 15 59 13 35 -2 46 1 49 13 6 34 -91 50 -139 24z"/>
<path d="M1654 2998 c3 -13 6 -58 6 -100 l0 -77 53 -63 c101 -120 184 -223
242 -303 32 -44 91 -118 130 -165 39 -47 82 -99 96 -116 63 -81 261 -304 269
-304 6 0 10 54 10 133 l0 134 -37 40 c-38 40 -149 177 -213 262 -19 26 -66 84
-105 130 -38 46 -94 113 -123 149 -61 77 -211 234 -261 275 -43 34 -76 37 -67
5z"/>
<path d="M2287 2720 l3 -301 57 -68 c32 -38 72 -86 90 -108 l32 -38 0 301 c1
165 -2 349 -6 407 l-6 107 -87 0 -86 0 3 -300z"/>
<path d="M2563 3004 c-6 -15 1 -1111 7 -1117 3 -3 43 -7 90 -9 l85 -4 0 195 0
196 136 -4 c146 -4 184 3 252 46 20 13 50 42 66 66 16 23 37 50 46 60 55 61
71 206 35 313 -39 114 -116 190 -240 239 -61 23 -78 25 -269 27 -139 2 -205 0
-208 -8z m469 -218 c57 -44 82 -94 82 -167 1 -63 -15 -93 -68 -134 -30 -23
-49 -27 -143 -35 -59 -5 -118 -12 -129 -15 -17 -5 -23 -1 -27 17 -9 31 -9 353
0 361 3 4 59 7 123 7 l117 0 45 -34z"/>
<path d="M1663 2315 l2 -430 88 -3 87 -3 0 326 0 326 -52 66 c-29 36 -70 84
-90 107 l-38 41 3 -430z"/>
</g>
</svg>
